Coordinates
version=1
nRows=11
nColumns=36
inDegrees=yes

Units are S.I. units (second, meters, Newtons, ...)
Angles are in degrees.

endheader
time	pelvis_tilt	pelvis_list	pelvis_rotation	pelvis_tx	pelvis_ty	pelvis_tz	hip_flexion_r	hip_adduction_r	hip_rotation_r	knee_angle_r	ankle_angle_r	subtalar_angle_r	hip_flexion_l	hip_adduction_l	hip_rotation_l	knee_angle_l	ankle_angle_l	subtalar_angle_l	lumbar_extension	lumbar_bending	lumbar_rotation	arm_flex_r	arm_add_r	arm_rot_r	elbow_flex_r	pro_sup_r	wrist_flex_r	wrist_dev_r	arm_flex_l	arm_add_l	arm_rot_l	elbow_flex_l	pro_sup_l	wrist_flex_l	wrist_dev_l
      2.70000000	      1.83970491	     -1.97854341	     -2.17938470	      0.10066859	      0.89081590	      0.27991482	    -18.56100986	      5.59539869	     -5.23812680	    -16.29006000	     14.67394559	     10.20074400	     29.19709930	      0.81686753	     -0.96330852	    -14.98163625	      5.05960231	      3.60271585	     -7.39711585	      3.67755022	      5.10355851	      1.75429652	    -23.55744655	     11.16815250	     37.63602009	     86.51662706	      0.00000000	      0.00000000	     -6.97905643	    -11.76540026	     19.10324520	     11.81711969	     86.51662706	      0.00000000	      0.00000000
      2.71000000	      1.67153318	     -1.65916257	     -2.38549490	      0.11642604	      0.88923409	      0.28031754	    -18.79590300	      5.00870008	     -5.27095356	    -17.39317757	     14.14722778	     10.78913423	     29.23955438	      1.29663014	     -0.77565068	    -16.27370242	      3.86993389	      2.95784574	     -6.91611109	      3.24572571	      5.21331722	      1.31626292	    -23.36881015	     10.92769906	     37.51124942	     86.51662706	      0.00000000	      0.00000000	     -7.24691344	    -11.77760838	     19.44726050	     11.51536329	     86.51662706	      0.00000000	      0.00000000
      2.72000000	      1.47955796	     -1.26775798	     -2.50240405	      0.13237093	      0.88769774	      0.28059562	    -18.92591275	      4.37423206	     -5.31627100	    -18.60978779	     13.40099420	     11.25864581	     29.29485110	      1.89695905	     -0.46448532	    -17.56707498	      2.32665897	      2.08299269	     -6.37081878	      2.72633007	      5.19530714	      0.84004606	    -23.11720255	     10.65192012	     37.32309391	     86.51662706	      0.00000000	      0.00000000	     -7.53261189	    -11.82234370	     19.74873505	     11.24071932	     86.51662706	      0.00000000	      0.00000000
      2.73000000	      1.28198726	     -0.79742158	     -2.51916061	      0.14839867	      0.88650518	      0.28069217	    -18.92485266	      3.69296360	     -5.38553059	    -19.97480704	     12.35269895	     11.59257710	     29.39185039	      2.59939226	     -0.05212290	    -18.84344160	      0.55046411	      1.05674613	     -5.78784032	      2.11866519	      5.04530133	      0.34267899	    -22.80187248	     10.33895107	     37.06570713	     86.51662706	      0.00000000	      0.00000000	     -7.81451688	    -11.89528177	     19.99755128	     10.99276042	     86.51662706	      0.00000000	      0.00000000
      2.74000000	      1.08791121	     -0.24283939	     -2.43964506	      0.16434975	      0.88589820	      0.28063821	    -18.76441664	      2.96418517	     -5.48663931	    -21.52722018	     10.91738599	     11.77876377	     29.52469166	      3.38033276	      0.43886811	    -20.12865566	     -1.28618461	     -0.04484860	     -5.19694289	      1.42365463	      4.77689131	     -0.16424462	    -22.42542911	      9.98912807	     36.73927143	     86.51662706	      0.00000000	      0.00000000	     -8.07188773	    -11.99328467	     20.18363241	     10.77505046	     86.51662706	      0.00000000	      0.00000000
      2.75000000	      0.89975040	      0.39070046	     -2.28253718	      0.18010208	      0.88593275	      0.28052253	    -18.42039891	      2.18827850	     -5.61950217	    -23.30404864	      9.02655669	     11.80564938	     29.65892775	      4.21759813	      0.98406168	    -21.45459745	     -2.99138053	     -1.15083455	     -4.62601357	      0.64798658	      4.42016135	     -0.67520818	    -21.99497700	      9.60645245	     36.35031646	     86.51662706	      0.00000000	      0.00000000	     -8.28830986	    -12.11474168	     20.29739182	     10.59554036	     86.51662706	      0.00000000	      0.00000000
      2.76000000	      0.72380984	      1.08356885	     -2.07735318	      0.19566889	      0.88647678	      0.28042323	    -17.87675663	      1.36798220	     -5.77105974	    -25.33428313	      6.64916810	     11.65775836	     29.75341604	      5.09380958	      1.55544060	    -22.82105459	     -4.38963316	     -2.19556380	     -4.09842665	     -0.19288738	      4.01592859	     -1.18924008	    -21.52250885	      9.19978756	     35.91076880	     86.51662706	      0.00000000	      0.00000000	     -8.45335157	    -12.25885130	     20.33050437	     10.46616862	     86.51662706	      0.00000000	      0.00000000
      2.77000000	      0.57114051	      1.80682457	     -1.85795099	      0.21112667	      0.88732291	      0.28038298	    -17.12410326	      0.50954105	     -5.91200619	    -27.63349745	      3.81005327	     11.31205174	     29.77350631	      5.99625893	      2.12069394	    -24.18449509	     -5.35142528	     -3.11922001	     -3.63254623	     -1.07493327	      3.60696369	     -1.70677836	    -21.02419828	      8.78351369	     35.43587693	     86.51662706	      0.00000000	      0.00000000	     -8.56226997	    -12.42439993	     20.27691082	     10.40162967	     86.51662706	      0.00000000	      0.00000000
      2.78000000	      0.44836861	      2.53275667	     -1.65565425	      0.22645493	      0.88832626	      0.28042331	    -16.15520176	     -0.37546043	     -5.99822693	    -30.20108054	      0.60064388	     10.73672931	     29.69051215	      6.91311221	      2.64364281	    -25.47570854	     -5.81056121	     -3.87008623	     -3.24173282	     -1.96922212	      3.22905068	     -2.22607943	    -20.51867779	      8.37743329	     34.94142812	     86.51662706	      0.00000000	      0.00000000	     -8.61457632	    -12.60874585	     20.13386009	     10.41739827	     86.51662706	      0.00000000	      0.00000000
      2.79000000	      0.35281688	      3.24349875	     -1.49428346	      0.24151246	      0.88944952	      0.28054211	    -14.96347358	     -1.26837072	     -5.97881803	    -33.02162292	     -2.82221466	      9.89383291	     29.48113518	      7.82707299	      3.08560586	    -26.62649342	     -5.76734311	     -4.40825232	     -2.93352370	     -2.84718937	      2.90478074	     -2.74043806	    -20.02478733	      8.00580126	     34.44086420	     86.51662706	      0.00000000	      0.00000000	     -8.61260420	    -12.80753621	     19.90274304	     10.52724844	     86.51662706	      0.00000000	      0.00000000
      2.80000000	      0.27706198	      3.93120089	     -1.38866896	      0.25616697	      0.89069345	      0.28070403	    -13.54724005	     -2.14367204	     -5.80942932	    -36.06904105	     -6.25114335	      8.74632091	     29.13364849	      8.71043987	      3.40762213	    -27.58773988	     -5.27908381	     -4.70920180	     -2.70823520	     -3.68467728	      2.64167474	     -3.23711328	    -19.55941995	      7.69546680	     33.94295952	     86.51662706	      0.00000000	      0.00000000	     -8.56073151	    -13.01533387	     19.58948547	     10.74068869	     86.51662706	      0.00000000	      0.00000000
